# xmcd
#
# Track frame offsets: 
#        182
#        11095
#        23342
#        33600
#        44600
#        55865
#        68065
#        80105
#        92062
#        104145
#        114957
#        127010
#        138695
#        150385
#        162100
#        171797
#        186112
#        197440
#        207427
#        218165
#        229757
#        242420
#
# Disc length: 3393 seconds
#
# Revision: 0
# Processed by: cddbd v1.4PL0 Copyright (c) Steve Scherf et al.
# Submitted via: ExactAudioCopy v0.90b3
#
DISCID=2f0d3f16
DTITLE=George Jones - The Race Is On (Australia)
DYEAR=1900
DGENRE=Country
TTITLE0=Ain't It Funny What A Fool Will Do
TTITLE1=You Comb Her Hair
TTITLE2=Your Heart Turned Left
TTITLE3=Not What I Had In Mind
TTITLE4=My Tears Are Overdue
TTITLE5=A Girl I Used To Know
TTITLE6=The Same Sweet Girl
TTITLE7=We Must Have Been Out Of Our Minds (With Melba Montgomery)
TTITLE8=What's In Our Heart (With Melba Montgomery)
TTITLE9=Wrong Number
TTITLE10=World's Worst Loser
TTITLE11=Where Does A Little Tear Come From
TTITLE12=Least Of All
TTITLE13=She Thinks I Still Care
TTITLE14=The Race Is On
TTITLE15=Open Pit Mine
TTITLE16=Big Fool Of The Year
TTITLE17=Let's Invite Them Over (With Melba Montgomery)
TTITLE18=Multiply The Heartaches (With Melba Montgomery)
TTITLE19=Please Be My Love
TTITLE20=I Saw Me
TTITLE21=Something I Dreamed
EXTD=
EXTT0=
EXTT1=
EXTT2=
EXTT3=
EXTT4=
EXTT5=
EXTT6=
EXTT7=
EXTT8=
EXTT9=
EXTT10=
EXTT11=
EXTT12=
EXTT13=
EXTT14=
EXTT15=
EXTT16=
EXTT17=
EXTT18=
EXTT19=
EXTT20=
EXTT21=
PLAYORDER=
